# xmcd
#
# Track frame offsets:
#	150
#	21550
#	40665
#
# Disc length: 727 seconds
#
# Revision: 0
# Processed by: cddbd v1.5.2PL0 Copyright (c) Steve Scherf et al.
# Submitted via: audiograbber 1.83.01
#
DISCID=1e02d503
DTITLE=Taikapeili - Jos Sulla On Toinen [CDM)
DYEAR=1994
DGENRE=Dance
TTITLE0=Jos Sulla On Toinen
TTITLE1=Valkokankaalla
TTITLE2=Sataa Taas
EXTD=TR.
EXTT0=
EXTT1=
EXTT2=
PLAYORDER=
